<?xml version="1.0" encoding="utf-8"?>
<!-- Generator: Adobe Illustrator 18.1.1, SVG Export Plug-In . SVG Version: 6.00 Build 0)  -->
<!DOCTYPE svg PUBLIC "-//W3C//DTD SVG 1.1//EN" "http://www.w3.org/Graphics/SVG/1.1/DTD/svg11.dtd">
<svg version="1.1" id="Layer_1" xmlns="http://www.w3.org/2000/svg" xmlns:xlink="http://www.w3.org/1999/xlink" x="0px" y="0px"
	 viewBox="0 0 800 254.99" style="enable-background:new 0 0 800 254.99;" xml:space="preserve">
<style type="text/css">
	.st0{fill:#FFFFFF;}
	.st1{fill:url(#SVGID_1_);}
	.st2{fill:url(#SVGID_2_);}
	.st3{fill:url(#SVGID_3_);}
	.st4{fill:url(#SVGID_4_);}
	.st5{fill:url(#SVGID_5_);}
	.st6{fill:url(#SVGID_6_);}
	.st7{fill:url(#SVGID_7_);}
	.st8{fill:url(#SVGID_8_);}
	.st9{fill:url(#SVGID_9_);}
	.st10{fill:url(#SVGID_10_);}
	.st11{fill:url(#SVGID_11_);}
	.st12{fill:url(#SVGID_12_);}
	.st13{fill:url(#SVGID_13_);}
	.st14{fill:url(#SVGID_14_);}
	.st15{fill:url(#SVGID_15_);}
	.st16{fill:url(#SVGID_16_);}
	.st17{fill:#1D5881;}
	.st18{fill:url(#SVGID_17_);}
	.st19{fill:url(#SVGID_18_);}
	.st20{fill:url(#SVGID_19_);}
	.st21{fill:url(#SVGID_20_);}
	.st22{fill:url(#SVGID_21_);}
	.st23{fill:url(#SVGID_22_);}
	.st24{fill:url(#SVGID_23_);}
	.st25{fill:url(#SVGID_24_);}
	.st26{fill:url(#SVGID_25_);}
	.st27{fill:url(#SVGID_26_);}
	.st28{fill:url(#SVGID_27_);}
	.st29{fill:url(#SVGID_28_);}
	.st30{fill:url(#SVGID_29_);}
	.st31{fill:url(#SVGID_30_);}
	.st32{fill:url(#SVGID_31_);}
	.st33{fill:url(#SVGID_32_);}
	.st34{fill:url(#SVGID_33_);}
	.st35{fill:url(#SVGID_34_);}
	.st36{fill:url(#SVGID_35_);}
	.st37{fill:url(#SVGID_36_);}
	.st38{fill:url(#SVGID_37_);}
	.st39{fill:url(#SVGID_38_);}
	.st40{fill:url(#SVGID_39_);}
	.st41{fill:url(#SVGID_40_);}
	.st42{fill:url(#SVGID_41_);}
	.st43{fill:url(#SVGID_42_);}
	.st44{fill:url(#SVGID_43_);}
	.st45{fill:url(#SVGID_44_);}
	.st46{fill:url(#SVGID_45_);}
	.st47{fill:url(#SVGID_46_);}
	.st48{fill:url(#SVGID_47_);}
	.st49{fill:url(#SVGID_48_);}
	.st50{fill:url(#SVGID_49_);}
	.st51{fill:url(#SVGID_50_);}
	.st52{fill:#1E5881;}
	.st53{fill:url(#SVGID_51_);}
	.st54{fill:url(#SVGID_52_);}
	.st55{fill:url(#SVGID_53_);}
	.st56{fill:url(#SVGID_54_);}
	.st57{fill:url(#SVGID_55_);}
	.st58{fill:url(#SVGID_56_);}
	.st59{fill:url(#SVGID_57_);}
	.st60{fill:url(#SVGID_58_);}
	.st61{fill:url(#SVGID_59_);}
	.st62{fill:url(#SVGID_60_);}
	.st63{fill:url(#SVGID_61_);}
	.st64{fill:url(#SVGID_62_);}
	.st65{fill:url(#SVGID_63_);}
	.st66{fill:url(#SVGID_64_);}
	.st67{fill:url(#SVGID_65_);}
	.st68{fill:url(#SVGID_66_);}
	.st69{fill:url(#SVGID_67_);}
	.st70{fill:url(#SVGID_68_);}
	.st71{fill:url(#SVGID_69_);}
	.st72{fill:url(#SVGID_70_);}
	.st73{fill:url(#SVGID_71_);}
	.st74{fill:url(#SVGID_72_);}
	.st75{fill:url(#SVGID_73_);}
	.st76{fill:url(#SVGID_74_);}
	.st77{fill:url(#SVGID_75_);}
	.st78{fill:url(#SVGID_76_);}
	.st79{fill:url(#SVGID_77_);}
	.st80{fill:url(#SVGID_78_);}
	.st81{fill:url(#SVGID_79_);}
	.st82{fill:url(#SVGID_80_);}
</style>
<g>
	<g>
		
			<linearGradient id="SVGID_1_" gradientUnits="userSpaceOnUse" x1="88.2242" y1="112.8945" x2="193.9986" y2="7.1201" gradientTransform="matrix(0.9999 0.0173 -0.0173 0.9999 -15.4156 63.286)">
			<stop  offset="0" style="stop-color:#48C0BC"/>
			<stop  offset="1" style="stop-color:#139FDA"/>
		</linearGradient>
		<path class="st1" d="M138.913,195.484c0.552,0.359,1.258,0.375,1.823,0.038l1.71-1.019c1.295-0.731,7.195-4.099,10.644-6.07
			c1.138-0.65,1.16-2.281,0.041-2.963l-0.873-0.532c-9.522-5.898-28.209-17.713-46.377-30.57
			c-14.618-10.345-22.859-24.547-22.609-38.964c0.379-21.897,18.482-39.402,40.354-39.023c22.292,0.386,39.462,17.553,39.09,39.081
			c-0.098,5.678-1.759,12.491-4.335,17.781c-0.335,0.68-0.687,1.315-1.054,1.974l-0.597,1.089c-0.445,0.813-0.169,1.831,0.627,2.305
			c2.575,1.533,7.914,4.701,9.832,5.76l1.107,0.67c0.742,0.449,1.702,0.276,2.24-0.403l0.515-0.649
			c5.174-6.92,8.631-18.003,8.808-28.231c0.539-31.142-24.031-55.971-55.937-56.523c-31.326-0.542-57.252,24.523-57.795,55.871
			c-0.359,20.724,8.407,36.669,28.423,51.697c8.712,6.54,40.835,26.595,42.732,27.681l0.337,0.194
			C138.011,194.904,138.498,195.213,138.913,195.484z"/>
		
			<linearGradient id="SVGID_2_" gradientUnits="userSpaceOnUse" x1="115.2679" y1="139.9381" x2="221.0422" y2="34.1638" gradientTransform="matrix(0.9999 0.0173 -0.0173 0.9999 -15.4156 63.286)">
			<stop  offset="0" style="stop-color:#48C0BC"/>
			<stop  offset="1" style="stop-color:#139FDA"/>
		</linearGradient>
		<path class="st2" d="M149.84,147.853l-0.797-0.487c-0.61-0.373-1.388-0.33-1.953,0.108l-0.86,0.667
			c-2.842,2.211-7.886,5.511-12.488,8.07c-0.516,0.287-0.583,1.066-0.185,1.342c1.146,0.793,4.901,3.034,7.191,4.417
			c1.836,1.11,4.815,3.003,5.557,3.525c0.824,0.579,1.443,0.59,2.366,0.095c3.434-1.842,10.578-6.631,13.253-8.783
			c0.655-0.527,0.48-1.283-0.026-1.615C160.932,154.555,151.446,148.824,149.84,147.853z"/>
	</g>
	<g>
		<path class="st0" d="M644.674,158.561l0.099-65.198c0-0.275,0.198-0.51,0.469-0.558l10.107-1.766
			c0.347-0.061,0.664,0.206,0.664,0.558v66.963c0,0.311-0.252,0.562-0.562,0.562h-10.215
			C644.926,159.123,644.674,158.871,644.674,158.561z"/>
		<path class="st0" d="M255.462,116.251l-3.797,5.998c-0.209,0.331-0.643,0.427-0.98,0.229c-3.494-2.056-7.014-3.084-10.561-3.084
			c-2.421,0-4.298,0.409-5.628,1.225c-1.332,0.817-1.997,1.983-1.997,3.495c0,1.271,0.302,2.285,0.908,3.041
			c0.604,0.757,1.588,1.407,2.95,1.952c1.362,0.544,3.464,1.15,6.309,1.815c4.598,1.15,8.063,2.859,10.394,5.129
			c2.329,2.269,3.495,5.251,3.495,8.941c0,4.963-1.876,8.775-5.628,11.437c-3.753,2.664-8.351,3.994-13.798,3.994
			c-6.681,0-12.303-1.644-16.864-4.935c-0.318-0.229-0.387-0.677-0.164-0.999l4.116-5.945c0.217-0.313,0.639-0.397,0.966-0.202
			c1.74,1.036,3.468,1.825,5.183,2.369c1.906,0.606,3.979,0.908,6.218,0.908c2.601,0,4.614-0.483,6.036-1.452
			c1.421-0.967,2.133-2.42,2.133-4.357c0-1.271-0.304-2.269-0.908-2.995c-0.605-0.726-1.574-1.362-2.905-1.906
			c-1.332-0.545-3.39-1.149-6.172-1.816c-4.661-1.149-8.095-2.844-10.303-5.083c-2.21-2.238-3.313-5.295-3.313-9.168
			c0-4.417,1.693-7.882,5.083-10.394c3.388-2.511,7.866-3.767,13.434-3.767c6.035,0,11.236,1.531,15.602,4.592
			C255.587,115.492,255.667,115.927,255.462,116.251z"/>
		<path class="st0" d="M292.812,137.097l-3.55-0.093c-5.742,0-9.655,0.727-12.134,1.994c-2.48,1.268-3.863,3.293-3.863,6.261
			c0,3.469,2.423,6.451,6.917,6.451c3.807,0,6.473-1.021,8.824-3.054c2.133-1.845,3.806-5.039,3.806-7.634
			C292.812,139.654,292.812,137.097,292.812,137.097z M262.844,145.9c0-6.173,2.753-10.794,6.581-12.89
			c4.394-2.406,10.696-3.631,18.926-3.631c1.997,0,3.509,0.031,4.539,0.091v-2.36c0-5.083-3.238-7.625-9.713-7.625
			c-4.436,0-8.788,1.097-13.058,3.289c-0.357,0.183-0.796,0.049-0.977-0.308l-3.172-6.269c-0.174-0.343-0.053-0.769,0.282-0.958
			c2.393-1.35,5.069-2.431,8.03-3.242c3.207-0.877,6.384-1.316,9.531-1.316c7.201,0,12.405,1.62,15.613,4.856
			c3.207,3.238,4.811,8.185,4.811,14.842v17.973v10.082c0,0.397-0.322,0.72-0.72,0.72h-9c-0.397,0-0.72-0.322-0.72-0.72v-4.473
			h-0.273c-1.695,2.24-3.722,3.74-6.082,4.829c-2.36,1.089-5.117,1.634-8.989,1.634c-4.357,0-7.924-1.333-10.893-3.767
			C264.978,154.537,262.844,150.561,262.844,145.9z"/>
		<path class="st0" d="M367.442,131.195c-0.122-3.509-1.075-6.384-2.859-8.623c-1.786-2.238-4.402-3.359-7.852-3.359
			c-3.51,0-6.218,1.134-8.124,3.404c-1.906,2.27-2.981,5.129-3.223,8.578H367.442z M377.69,139.728h-32.215
			c0.483,3.753,1.83,6.642,4.039,8.669c2.209,2.028,5.25,3.041,9.123,3.041c2.662,0,5.007-0.348,7.035-1.044
			c1.852-0.635,3.818-1.588,5.899-2.855c0.33-0.201,0.762-0.114,0.978,0.206l4.119,6.102c0.22,0.326,0.142,0.775-0.181,1
			c-2.558,1.792-5.286,3.151-8.183,4.08c-3.117,0.999-6.581,1.498-10.394,1.498c-4.962,0-9.229-1.03-12.799-3.086
			c-3.571-2.057-6.309-4.961-8.215-8.714c-1.906-3.751-2.859-8.109-2.859-13.071c0-7.503,1.982-13.525,5.946-18.064
			c3.963-4.539,9.577-6.808,16.839-6.808c7.14,0,12.556,2.239,16.248,6.717c3.69,4.479,5.537,10.5,5.537,18.064
			c0,1.231-0.065,2.44-0.196,3.627C378.371,139.453,378.057,139.728,377.69,139.728z"/>
		<path class="st0" d="M419.389,116.251l-3.797,5.998c-0.209,0.331-0.643,0.427-0.98,0.229c-3.494-2.056-7.014-3.084-10.561-3.084
			c-2.421,0-4.298,0.409-5.628,1.225c-1.332,0.817-1.997,1.983-1.997,3.495c0,1.271,0.302,2.285,0.908,3.041
			c0.604,0.757,1.588,1.407,2.95,1.952c1.362,0.544,3.464,1.15,6.309,1.815c4.598,1.15,8.063,2.859,10.394,5.129
			c2.329,2.269,3.494,5.251,3.494,8.941c0,4.963-1.876,8.775-5.627,11.437c-3.753,2.664-8.351,3.994-13.798,3.994
			c-6.681,0-12.302-1.644-16.864-4.935c-0.318-0.229-0.387-0.677-0.164-0.999l4.116-5.945c0.217-0.313,0.639-0.397,0.966-0.202
			c1.74,1.036,3.468,1.825,5.183,2.369c1.906,0.606,3.979,0.908,6.218,0.908c2.601,0,4.614-0.483,6.036-1.452
			c1.421-0.967,2.133-2.42,2.133-4.357c0-1.271-0.304-2.269-0.908-2.995c-0.605-0.726-1.574-1.362-2.905-1.906
			c-1.332-0.545-3.39-1.149-6.172-1.816c-4.661-1.149-8.095-2.844-10.303-5.083c-2.21-2.238-3.313-5.295-3.313-9.168
			c0-4.417,1.693-7.882,5.083-10.394c3.388-2.511,7.866-3.767,13.434-3.767c6.035,0,11.236,1.531,15.603,4.591
			C419.514,115.492,419.594,115.927,419.389,116.251z"/>
		<path class="st0" d="M483.695,151.433c-4.426-0.023-7.373-1.7-9.668-4.398c-2.495-2.934-3.743-6.605-3.743-11.447
			c0-4.78,1.19-8.554,3.697-11.61c2.189-2.668,5.234-4.221,9.713-4.221c4.479,0,7.525,1.553,9.713,4.221
			c2.507,3.056,3.697,6.83,3.697,11.61c0,4.842-1.248,8.513-3.743,11.447C491.068,149.733,488.122,151.41,483.695,151.433z
			 M505.3,122.39c-1.936-3.69-4.735-6.566-8.397-8.624c-3.661-2.056-8.064-3.086-13.208-3.086c-5.145,0-9.547,1.03-13.208,3.086
			c-3.662,2.058-6.46,4.933-8.397,8.624c-1.937,3.692-2.904,8.019-2.904,12.981c0,4.842,0.983,9.154,2.95,12.935
			c1.966,3.783,4.795,6.749,8.487,8.896c3.691,2.147,8.048,3.223,13.072,3.223c5.024,0,9.381-1.075,13.072-3.223
			c3.692-2.147,6.521-5.113,8.487-8.896c1.967-3.781,2.95-8.093,2.95-12.935C508.205,130.409,507.238,126.082,505.3,122.39z"/>
		<path class="st0" d="M570.894,110.68c5.707,0,10.797,1.57,15.272,4.707c0.3,0.21,0.392,0.618,0.218,0.941l-3.597,6.658
			c-0.198,0.366-0.66,0.481-1.015,0.265c-3.435-2.087-7.031-3.131-10.786-3.131c-4.298,0-7.505,1.362-9.622,4.085
			c-2.119,2.723-3.177,6.476-3.177,11.256c0,4.661,1.059,8.397,3.177,11.211c2.117,2.814,5.265,4.221,9.44,4.221
			c3.493,0,7.176-1.084,11.05-3.252c0.36-0.201,0.815-0.071,1.001,0.297l3.452,6.829c0.165,0.327,0.063,0.733-0.243,0.934
			c-2.217,1.459-4.642,2.596-7.273,3.407c-2.845,0.877-5.81,1.316-8.896,1.316c-5.75,0-10.348-1.271-13.798-3.812
			c-3.449-2.542-5.87-5.688-7.262-9.44c-1.393-3.752-2.088-7.655-2.088-11.71c0-5.022,0.967-9.395,2.904-13.117
			c1.936-3.722,4.721-6.595,8.351-8.623C561.635,111.694,565.931,110.68,570.894,110.68z"/>
		<path class="st0" d="M623.835,131.195c-0.121-3.509-1.075-6.384-2.859-8.623c-1.785-2.238-4.402-3.359-7.851-3.359
			c-3.511,0-6.219,1.134-8.124,3.404c-1.906,2.27-2.981,5.129-3.222,8.578H623.835z M634.083,139.728h-32.216
			c0.484,3.753,1.83,6.642,4.04,8.669c2.208,2.028,5.249,3.041,9.122,3.041c2.663,0,5.007-0.348,7.035-1.044
			c1.852-0.635,3.818-1.588,5.899-2.855c0.33-0.201,0.762-0.114,0.978,0.206l4.119,6.102c0.22,0.326,0.142,0.775-0.181,1
			c-2.558,1.792-5.286,3.151-8.183,4.08c-3.117,0.999-6.581,1.498-10.393,1.498c-4.963,0-9.23-1.03-12.799-3.086
			c-3.572-2.057-6.309-4.961-8.215-8.714c-1.906-3.751-2.859-8.109-2.859-13.071c0-7.503,1.981-13.525,5.946-18.064
			c3.963-4.539,9.577-6.808,16.838-6.808c7.14,0,12.556,2.239,16.249,6.717c3.691,4.479,5.537,10.5,5.537,18.064
			c0,1.231-0.065,2.44-0.195,3.627C634.765,139.453,634.451,139.728,634.083,139.728z"/>
		<path class="st0" d="M314.072,158.561l0.099-65.198c0-0.275,0.198-0.51,0.469-0.558l10.107-1.766
			c0.347-0.061,0.664,0.206,0.664,0.558v66.963c0,0.311-0.252,0.562-0.562,0.562h-10.215
			C314.324,159.123,314.072,158.871,314.072,158.561z"/>
		<path class="st0" d="M712.369,135.101l-6.553,6.909c-0.274,0.289-0.262,0.747,0.027,1.021l5.909,5.623
			c-3.262,1.907-7.252,2.849-12.061,2.849c-7.475,0-12.638-2.414-16.789-7.027c-4.046-4.495-5.939-10.96-5.961-18.988
			c0.022-8.037,1.999-14.467,5.874-19.11c3.881-4.652,9.401-6.914,16.876-6.914c7.472,0,12.976,2.26,16.826,6.91
			c3.848,4.646,5.81,11.077,5.831,19.106c-0.016,5.925-1.09,10.974-3.193,15.081l-5.765-5.487
			C713.1,134.799,712.643,134.811,712.369,135.101z M733.873,124.928l-0.006-0.253c-0.007-0.41-0.014-0.82-0.029-1.216
			c-0.217-6.4-1.559-12.15-3.986-17.092c-2.706-5.509-6.695-9.84-11.859-12.874c-5.139-3.018-11.327-4.548-18.394-4.548
			c-0.063,0-0.126,0.002-0.187,0.004h-0.097c-0.061-0.002-0.123-0.004-0.188-0.004c-10.658,0-18.704,3.23-24.568,9.841
			c-2.072,2.203-3.826,4.753-5.216,7.581c-2.674,5.443-4.029,11.828-4.029,18.977v0.277c0,7.149,1.356,13.534,4.029,18.977
			c1.389,2.827,3.143,5.378,5.183,7.546c5.896,6.646,13.942,9.876,24.6,9.876c0.064,0,0.126-0.002,0.188-0.004h0.097
			c0.061,0.002,0.123,0.004,0.187,0.004c7.067,0,13.255-1.53,18.394-4.548c0.627-0.369,1.236-0.758,1.828-1.165l5.038,4.779
			c0.289,0.275,0.747,0.262,1.021-0.027l6.553-6.91c0.274-0.289,0.262-0.747-0.027-1.021l-4.844-4.594
			c0.843-1.236,1.607-2.548,2.288-3.936c2.428-4.942,3.769-10.693,3.986-17.086c0.016-0.403,0.023-0.812,0.03-1.227l0.006-0.248
			c0.005-0.138,0.009-0.276,0.009-0.417v-0.277C733.882,125.204,733.878,125.066,733.873,124.928z"/>
		<path class="st0" d="M457.369,112.813l-0.94,8.238c-0.033,0.286-0.275,0.503-0.563,0.503h-11.357v37.007
			c0,0.311-0.252,0.562-0.562,0.562H433.73c-0.311,0-0.562-0.252-0.562-0.562v-37.007h-6.2c-0.331,0-0.591-0.282-0.565-0.612
			l0.659-8.332c0.023-0.295,0.269-0.522,0.565-0.522h5.541v-3.562c0-10.871,5.435-16.213,15.182-16.213
			c3.726,0,6.36,0.504,8.777,1.194c0.242,0.069,0.407,0.292,0.407,0.543l0,8.365c0,0.38-0.371,0.644-0.734,0.531
			c-1.954-0.61-3.751-0.981-5.919-0.981c-4.311,0-6.561,2.343-6.561,7.497v2.718h12.485
			C457.144,112.182,457.407,112.477,457.369,112.813z"/>
		<path class="st0" d="M545.531,113.154c0.235-0.697-0.26-1.033-0.461-1.111c-0.527-0.201-3.147-0.804-5.17-0.881
			c-3.376-0.127-5.893,0.552-7.974,1.63c-1.794,0.93-4.117,2.681-5.457,5.535l-0.002-5.351c0-0.515-0.368-0.935-0.885-0.935h-9.021
			c-0.515,0-0.883,0.419-0.883,0.935v45.154c0,0.515,0.417,0.934,0.934,0.934h9.485c0.515,0,0.934-0.419,0.934-0.934v-20.222
			c0-8.924,1.776-11.452,3.935-13.449c2.292-2.119,4.973-3.013,7.735-3.029c1.614-0.01,3.387,0.412,3.387,0.412
			c0.596,0.066,0.927-0.297,1.126-0.831C543.743,119.6,545.244,113.993,545.531,113.154"/>
	</g>
</g>
</svg>
